Coordinates
version=1
nRows=6
nColumns=36
inDegrees=yes

Units are S.I. units (second, meters, Newtons, ...)
If the header above contains a line with 'inDegrees', this indicates whether rotational values are in degrees (yes) or radians (no).

endheader
time	pelvis_tilt	pelvis_list	pelvis_rotation	pelvis_tx	pelvis_ty	pelvis_tz	hip_flexion_r	hip_adduction_r	hip_rotation_r	knee_angle_r	knee_angle_r_beta	ankle_angle_r	subtalar_angle_r	mtp_angle_r	hip_flexion_l	hip_adduction_l	hip_rotation_l	knee_angle_l	knee_angle_l_beta	ankle_angle_l	subtalar_angle_l	mtp_angle_l	lumbar_extension	lumbar_bending	lumbar_rotation	arm_flex_r	arm_add_r	arm_rot_r	elbow_flex_r	pro_sup_r	arm_flex_l	arm_add_l	arm_rot_l	elbow_flex_l	pro_sup_l
     15.15000000	     -1.25434353	      3.37628243	     -3.85501179	      0.91667956	      0.78043897	      0.74359149	    -21.45717541	     -2.58956242	      0.58399202	     12.48516550	      0.21790725	     13.78099359	     -2.93181043	     -7.49999987	     29.70049739	      4.77003169	      1.54848608	     15.10063261	      0.26355576	      4.48649620	     -6.27732371	     -7.49999987	     -4.31133779	     -2.94822660	      8.36340678	     19.42557786	    -18.34187707	      3.14805093	     31.76303946	     88.23986900	      0.90346166	     -9.55075481	     -5.02142179	      5.05985992	     93.92694027
     15.16666670	     -0.95376313	      4.11908060	     -3.22565546	      0.91903225	      0.78199499	      0.74278072	    -20.52093660	     -3.60407479	     -0.78400438	     17.40889381	      0.30384252	      9.37886558	     -4.24684988	     -7.49999987	     28.94351951	      6.16631344	      2.56811342	     17.22724186	      0.30067209	      3.57594186	     -7.41603323	     -7.49999987	     -4.50717836	     -4.02972096	      7.68138157	     18.86156244	    -17.69986860	      2.94610024	     31.96014438	     88.61455310	      0.51560244	     -9.94580851	     -5.12233282	      5.23300826	     94.16780836
     15.18333330	     -0.41034746	      4.63134213	     -2.55293120	      0.92128998	      0.78673019	      0.74228535	    -18.86979807	     -4.38196773	     -1.69147207	     23.48785603	      0.40994042	      3.57953384	     -6.33735784	     -7.49999987	     27.67469947	      7.35501356	      3.70639642	     18.98559674	      0.33136117	      3.38364176	     -8.22549500	     -7.49999987	     -5.11281853	     -4.86795400	      6.70815468	     18.22193690	    -16.90988533	      2.74635567	     31.94156888	     88.88118913	      0.28586868	    -10.24034001	     -5.23976875	      5.35670854	     94.14864227
     15.20000000	      0.16887188	      4.91666557	     -1.95459705	      0.92358027	      0.79401138	      0.74182569	    -16.05832093	     -5.04080348	     -2.29899713	     30.90776241	      0.53944222	     -3.18017801	     -8.75905134	     -7.49999987	     26.02214540	      8.24976045	      4.91029959	     20.23371379	      0.35314493	      3.71286708	     -8.76133022	     -7.49999987	     -5.76283068	     -5.40703364	      5.76620814	     17.42173350	    -16.03841041	      1.53943259	     31.34163976	     95.03211769	      0.32460994	    -10.45478947	     -6.21616259	      5.44857901	     96.06038291
     15.21666670	      0.72785270	      5.01210630	     -1.73818484	      0.92591269	      0.80225495	      0.74107935	    -12.22651042	     -5.71900208	     -2.51084296	     39.02038570	      0.68103421	     -9.33003190	    -10.94001380	     -7.49999987	     23.89190733	      8.73422007	      5.93201526	     20.56321568	      0.35889582	      4.26757720	     -9.10154479	     -7.49999987	     -6.42106434	     -5.70945568	      5.04869260	     16.42763560	    -15.39000674	      1.82416841	     30.82014083	     93.29037308	      0.47504018	    -10.54451748	     -5.68932269	      5.49988749	     93.87852829
     15.23333330	      1.23924363	      4.84025339	     -2.03235972	      0.92689587	      0.80957820	      0.73995423	     -7.97848402	     -6.19098376	     -2.24701826	     46.50748051	      0.81170866	    -13.22322118	    -12.46557039	     -7.49999987	     21.51893110	      8.65946962	      6.50097062	     20.18518340	      0.35229791	      4.95311790	     -9.17753290	     -7.49999987	     -7.06070756	     -5.67453342	      4.72220234	     15.57967406	    -14.89073228	      2.23008137	     29.92654128	     92.36986191	      0.86907840	    -10.51728690	     -5.23426066	      5.52792632	     92.43190640
